<svg width="16" height="16" viewBox="0 0 16 16" fill="none" xmlns="http://www.w3.org/2000/svg">
<g clip-path="url(#clip0_706_33704)">
<path d="M8.33 2.7207C8.33 2.4407 8.11 2.2207 7.83 2.2207C7.55 2.2207 7.33 2.4407 7.33 2.7207V4.2007L8.33 5.2007V2.7207Z" fill="#03111E"/>
<path d="M14.17 12.3995C14.17 12.3995 14.13 12.3395 14.11 12.3195L13.57 11.7795L12.66 10.8695L9.86 8.06955L9.15 7.35955L3.94 2.14955C3.94 2.14955 3.85 2.06955 3.79 2.05955C3.79 2.05955 3.79 2.04955 3.78 2.04955C3.6 1.95955 3.38 1.99955 3.23 2.14955C3.03 2.33955 3.03 2.65955 3.23 2.84955L7.33 6.94955V8.35955C7.17 8.16955 7.02 7.97955 6.92 7.84955C6.76 7.64955 6.62 7.46955 6.52 7.36955C6.33 7.16955 6.01 7.16955 5.82 7.35955C5.62 7.54955 5.61 7.86955 5.81 8.06955C5.89 8.14955 6 8.29955 6.13 8.46955C6.79 9.29955 7.29 9.88955 7.83 9.88955C8.28 9.88955 8.71 9.47955 9.23 8.84955L12.39 12.0095C12.18 12.1895 11.81 12.2195 11.16 12.2195H4.5C3.12 12.2195 3 12.0895 3 10.7195C3 10.4395 2.77 10.2195 2.5 10.2195C2.23 10.2195 2 10.4395 2 10.7195C2 12.6595 2.56 13.2195 4.5 13.2195H11.16C12.11 13.2195 12.72 13.0895 13.11 12.7295L13.4 13.0195C13.5 13.1195 13.62 13.1695 13.75 13.1695C13.88 13.1695 14.01 13.1195 14.11 13.0195C14.28 12.8495 14.3 12.5895 14.17 12.3995ZM8.33 8.35955V7.94955L8.52 8.13955C8.45 8.20955 8.39 8.28955 8.33 8.35955Z" fill="#03111E"/>
</g>
<defs>
<clipPath id="clip0_706_33704">
<rect width="12.25" height="11.22" fill="white" transform="translate(2 2)"/>
</clipPath>
</defs>
</svg>
