<svg width="16" height="16" viewBox="0 0 16 16" fill="none" xmlns="http://www.w3.org/2000/svg">
<path d="M4.66668 4.33317H11.1667C12.5711 4.33317 13.2734 4.33317 13.7778 4.67023C13.9962 4.81615 14.1837 5.00365 14.3296 5.22203C14.6241 5.6627 14.6613 6.25433 14.666 7.33317M8.00001 4.33317L7.57772 3.48859C7.22787 2.78889 6.90816 2.08458 6.13285 1.79384C5.79327 1.6665 5.40536 1.6665 4.62952 1.6665C3.41854 1.6665 2.81305 1.6665 2.35872 1.92005C2.03485 2.10078 1.76762 2.36801 1.58689 2.69188C1.33334 3.14621 1.33334 3.7517 1.33334 4.96269V6.99984C1.33334 10.1425 1.33334 11.7139 2.30965 12.6902C3.17641 13.5569 4.51215 13.6542 7.00001 13.6651H7.33334" stroke="#141B34" stroke-linecap="round"/>
<path d="M10.2318 14.2371L10.1273 13.7482L10.2318 14.2371ZM9.42953 13.4349L9.91848 13.5394L9.42953 13.4349ZM10.0138 11.7411L9.66024 11.3876L10.0138 11.7411ZM14.5308 9.98486L14.9639 9.73486V9.73486L14.5308 9.98486ZM14.5308 10.9987L14.9639 11.2487L14.5308 10.9987ZM13.6818 9.13583L13.9318 8.70282H13.9318L13.6818 9.13583ZM12.219 9.53592L12.5726 9.88947L12.219 9.53592ZM12.668 9.13583L12.418 8.70282H12.418L12.668 9.13583ZM13.7772 11.0941L11.572 13.2993L12.2791 14.0064L14.4843 11.8012L13.7772 11.0941ZM10.3673 12.0947L12.5726 9.88947L11.8655 9.18237L9.66024 11.3876L10.3673 12.0947ZM10.1273 13.7482C10.0103 13.7732 9.91686 13.7932 9.83655 13.8081C9.75552 13.8231 9.7024 13.8303 9.66639 13.8326C9.62941 13.8349 9.63196 13.8305 9.65503 13.8365C9.68642 13.8446 9.7291 13.8648 9.76549 13.9012L9.05839 14.6083C9.27424 14.8241 9.54388 14.8424 9.72985 14.8305C9.90685 14.8193 10.1226 14.7718 10.3364 14.7261L10.1273 13.7482ZM8.94058 13.3303C8.89488 13.5441 8.84739 13.7598 8.83613 13.9368C8.82431 14.1228 8.84253 14.3924 9.05839 14.6083L9.76549 13.9012C9.80188 13.9376 9.82211 13.9803 9.8302 14.0116C9.83615 14.0347 9.83177 14.0373 9.83412 14.0003C9.83641 13.9643 9.84353 13.9112 9.85859 13.8301C9.87352 13.7498 9.89347 13.6564 9.91848 13.5394L8.94058 13.3303ZM13.7772 9.88947C14.0222 10.1345 14.0723 10.1906 14.0978 10.2349L14.9639 9.73486C14.8559 9.54789 14.6838 9.38184 14.4843 9.18237L13.7772 9.88947ZM14.4843 11.8012C14.6838 11.6017 14.8559 11.4357 14.9639 11.2487L14.0978 10.7487C14.0723 10.7929 14.0222 10.8491 13.7772 11.0941L14.4843 11.8012ZM14.0978 10.2349C14.1896 10.3938 14.1896 10.5897 14.0978 10.7487L14.9639 11.2487C15.2343 10.7803 15.2343 10.2033 14.9639 9.73486L14.0978 10.2349ZM14.4843 9.18237C14.2848 8.98289 14.1188 8.81077 13.9318 8.70282L13.4318 9.56884C13.476 9.59437 13.5322 9.64448 13.7772 9.88947L14.4843 9.18237ZM12.5726 9.88947C12.8176 9.64448 12.8737 9.59437 12.918 9.56884L12.418 8.70282C12.231 8.81077 12.0649 8.98289 11.8655 9.18237L12.5726 9.88947ZM13.9318 8.70282C13.4634 8.43239 12.8863 8.43239 12.418 8.70282L12.918 9.56884C13.0769 9.47705 13.2728 9.47705 13.4318 9.56884L13.9318 8.70282ZM11.572 13.2993C11.4416 13.4297 11.2635 13.514 11.0104 13.5786C10.8836 13.611 10.7483 13.636 10.5975 13.662C10.4527 13.6871 10.2869 13.7141 10.1273 13.7482L10.3364 14.7261C10.4709 14.6973 10.6088 14.6749 10.7678 14.6474C10.9209 14.621 11.0897 14.5904 11.2577 14.5475C11.5943 14.4616 11.9689 14.3166 12.2791 14.0064L11.572 13.2993ZM9.91848 13.5394C9.9526 13.3798 9.9796 13.214 10.0046 13.0691C10.0307 12.9184 10.0557 12.7831 10.0881 12.6563C10.1527 12.4032 10.237 12.2251 10.3673 12.0947L9.66024 11.3876C9.35003 11.6978 9.20507 12.0724 9.11916 12.4089C9.07626 12.577 9.04569 12.7458 9.01923 12.8989C8.99175 13.0579 8.96935 13.1958 8.94058 13.3303L9.91848 13.5394Z" fill="#141B34"/>
</svg>
