<svg width="20" height="20" viewBox="0 0 20 20" fill="none" xmlns="http://www.w3.org/2000/svg">
<path d="M4.3168 12.7473C3.26883 13.3616 0.521092 14.6158 2.19465 16.1853C3.01216 16.952 3.92267 17.5003 5.06739 17.5003H11.5994C12.7442 17.5003 13.6547 16.952 14.4722 16.1853C16.1457 14.6158 13.398 13.3616 12.35 12.7473C9.89253 11.3069 6.77429 11.3069 4.3168 12.7473Z" stroke="white" stroke-width="1.5" stroke-linecap="round" stroke-linejoin="round"/>
<path d="M11.6667 5.83333C11.6667 7.67428 10.1743 9.16667 8.33333 9.16667C6.49238 9.16667 5 7.67428 5 5.83333C5 3.99238 6.49238 2.5 8.33333 2.5C10.1743 2.5 11.6667 3.99238 11.6667 5.83333Z" stroke="white" stroke-width="1.5"/>
<path d="M16.3519 3.80437C16.5382 3.60253 16.6314 3.50161 16.7303 3.44274C16.9692 3.3007 17.2633 3.29628 17.5061 3.43109C17.6067 3.48696 17.7027 3.58504 17.8948 3.7812C18.0868 3.97736 18.1828 4.07544 18.2375 4.17824C18.3694 4.42629 18.3651 4.72671 18.2261 4.97068C18.1685 5.0718 18.0697 5.16695 17.8721 5.35726L15.5212 7.62158C15.1467 7.98223 14.9595 8.16255 14.7255 8.25394C14.4915 8.34533 14.2343 8.33861 13.7198 8.32515L13.6498 8.32332C13.4932 8.31923 13.4149 8.31718 13.3694 8.26552C13.3239 8.21386 13.3301 8.13409 13.3425 7.97455L13.3493 7.88792C13.3842 7.43889 13.4017 7.21438 13.4894 7.01256C13.5771 6.81074 13.7284 6.64687 14.0309 6.31913L16.3519 3.80437Z" stroke="white" stroke-width="1.5" stroke-linejoin="round"/>
</svg>
