<svg width="16" height="16" viewBox="0 0 16 16" fill="none" xmlns="http://www.w3.org/2000/svg">
<g clip-path="url(#clip0_3923_10278)">
<path d="M9.38251 2.59095C9.8793 2.05271 10.1277 1.78358 10.3916 1.6266C11.0285 1.24782 11.8128 1.23605 12.4603 1.59553C12.7286 1.74452 12.9847 2.00606 13.4967 2.52916C14.0088 3.05225 14.2648 3.3138 14.4107 3.58794C14.7626 4.2494 14.7511 5.05051 14.3803 5.70112C14.2266 5.97076 13.9631 6.2245 13.4362 6.73199L7.16713 12.7702C6.16862 13.7319 5.66937 14.2128 5.04541 14.4565C4.42145 14.7002 3.73551 14.6822 2.36362 14.6464L2.17696 14.6415C1.75931 14.6306 1.55049 14.6251 1.4291 14.4873C1.30771 14.3496 1.32428 14.1369 1.35743 13.7114L1.37542 13.4804C1.46871 12.283 1.51536 11.6843 1.74918 11.1461C1.983 10.608 2.38633 10.171 3.19299 9.29699L9.38251 2.59095Z" stroke="#03111E" stroke-linejoin="round"/>
<path d="M8.66675 2.66797L13.3334 7.33464" stroke="#03111E" stroke-linejoin="round"/>
<path d="M9.33337 14.668L14.6667 14.668" stroke="#03111E" stroke-linecap="round" stroke-linejoin="round"/>
</g>
<defs>
<clipPath id="clip0_3923_10278">
<rect width="16" height="16" fill="white"/>
</clipPath>
</defs>
</svg>
