<svg width="16" height="16" viewBox="0 0 16 16" fill="none" xmlns="http://www.w3.org/2000/svg">
<g clip-path="url(#clip0_683_22947)">
<path d="M9.38248 2.58998C9.87927 2.05173 10.1277 1.78261 10.3916 1.62563C11.0285 1.24685 11.8127 1.23507 12.4602 1.59456C12.7286 1.74354 12.9846 2.00509 13.4967 2.52818C14.0088 3.05128 14.2648 3.31282 14.4106 3.58696C14.7626 4.24842 14.751 5.04954 14.3802 5.70014C14.2266 5.96978 13.9631 6.22352 13.4362 6.73101L7.16709 12.7692C6.16859 13.7309 5.66934 14.2118 5.04538 14.4555C4.42142 14.6992 3.73548 14.6813 2.36359 14.6454L2.17693 14.6405C1.75928 14.6296 1.55046 14.6241 1.42907 14.4864C1.30768 14.3486 1.32425 14.1359 1.3574 13.7105L1.37539 13.4794C1.46868 12.282 1.51533 11.6833 1.74915 11.1452C1.98297 10.607 2.3863 10.17 3.19296 9.29601L9.38248 2.58998Z" stroke="#9EA6A9" stroke-linejoin="round"/>
<path d="M8.66669 2.66602L13.3334 7.33268" stroke="#9EA6A9" stroke-linejoin="round"/>
<path d="M9.33334 14.666L14.6667 14.666" stroke="#9EA6A9" stroke-linecap="round" stroke-linejoin="round"/>
</g>
<defs>
<clipPath id="clip0_683_22947">
<rect width="16" height="16" fill="white"/>
</clipPath>
</defs>
</svg>
