<svg width="20" height="20" viewBox="0 0 20 20" fill="none" xmlns="http://www.w3.org/2000/svg">
<path d="M11.2501 10.8337V9.58366C11.2501 8.41327 11.2501 7.82808 10.9692 7.40771C10.8476 7.22572 10.6913 7.06947 10.5094 6.94788C10.1421 6.7025 9.64912 6.67148 8.75008 6.66756C8.61998 6.66699 8.48137 6.66699 8.33341 6.66699C7.16303 6.66699 6.57784 6.66699 6.15746 6.94788C5.97548 7.06947 5.81923 7.22572 5.69763 7.40771C5.41675 7.82808 5.41675 8.41327 5.41675 9.58366V14.5837C5.41675 15.754 5.41675 16.3392 5.69763 16.7596C5.81923 16.9416 5.97548 17.0978 6.15746 17.2194C6.57784 17.5003 7.16303 17.5003 8.33341 17.5003C9.5038 17.5003 10.089 17.5003 10.5094 17.2194C10.6913 17.0978 10.8476 16.9416 10.9692 16.7596C11.1253 16.5259 11.1947 16.2414 11.2255 15.8337" stroke="#03111E" stroke-width="1.5" stroke-linecap="round"/>
<path d="M8.75016 9.16634V10.4163C8.75016 11.5867 8.75016 12.1719 9.03105 12.5923C9.15264 12.7743 9.3089 12.9305 9.49088 13.0521C9.85811 13.2975 10.3511 13.3285 11.2502 13.3324C11.3803 13.333 11.5189 13.333 11.6668 13.333C12.8372 13.333 13.4224 13.333 13.8428 13.0521C14.0248 12.9305 14.181 12.7743 14.3026 12.5923C14.5835 12.1719 14.5835 11.5867 14.5835 10.4163V5.41634C14.5835 4.24596 14.5835 3.66076 14.3026 3.24039C14.181 3.05841 14.0248 2.90216 13.8428 2.78056C13.4224 2.49967 12.8372 2.49967 11.6668 2.49967C10.4964 2.49967 9.91125 2.49967 9.49088 2.78056C9.3089 2.90216 9.15264 3.05841 9.03105 3.24039C8.87492 3.47405 8.80557 3.75864 8.77477 4.16634" stroke="#03111E" stroke-width="1.5" stroke-linecap="round"/>
</svg>
