<svg width="13" height="15" viewBox="0 0 13 15" fill="none" xmlns="http://www.w3.org/2000/svg">
<path d="M11.5 2.83301L11.0868 9.5164C10.9813 11.224 10.9285 12.0778 10.5005 12.6916C10.2889 12.9951 10.0164 13.2512 9.70047 13.4437C9.06141 13.833 8.20599 13.833 6.49516 13.833C4.78208 13.833 3.92554 13.833 3.28604 13.443C2.96987 13.2501 2.69733 12.9935 2.48579 12.6896C2.05792 12.0747 2.0063 11.2197 1.90307 9.50978L1.5 2.83301" stroke="#9EA6A9" stroke-linecap="round"/>
<path d="M0.5 2.83333H12.5M9.20382 2.83333L8.7487 1.89448C8.44638 1.27084 8.29522 0.959014 8.03448 0.764537C7.97664 0.7214 7.9154 0.683028 7.85135 0.649801C7.56261 0.5 7.21608 0.5 6.52302 0.5C5.81255 0.5 5.45732 0.5 5.16379 0.65608C5.09873 0.690672 5.03666 0.730597 4.9782 0.775445C4.71443 0.9778 4.56709 1.30104 4.2724 1.94751L3.86862 2.83333" stroke="#9EA6A9" stroke-linecap="round"/>
<path d="M4.83334 10.167L4.83334 6.16699" stroke="#9EA6A9" stroke-linecap="round"/>
<path d="M8.16666 10.167L8.16666 6.16699" stroke="#9EA6A9" stroke-linecap="round"/>
</svg>
