<svg width="20" height="20" viewBox="0 0 20 20" fill="none" xmlns="http://www.w3.org/2000/svg">
<path d="M9.64208 17.5001H8.75594C5.41406 17.5001 3.74312 17.5001 2.70494 16.2119C1.66675 14.9237 1.66675 12.8504 1.66675 8.70378V6.01588C1.66675 4.41805 1.66675 3.61914 1.93636 3.01967C2.12855 2.59235 2.41272 2.23976 2.75711 2.00129C3.24024 1.66675 3.8841 1.66675 5.17184 1.66675C5.99684 1.66675 6.40934 1.66675 6.77044 1.83476C7.59489 2.21838 7.93486 3.14767 8.30688 4.07089L8.75594 5.18527M5.83686 5.18527H12.9573C14.4508 5.18527 15.1975 5.18527 15.734 5.63C15.9662 5.82253 16.1656 6.06993 16.3207 6.35807C16.5624 6.80678 16.6411 7.3741 16.6667 8.26397" stroke="#03111E" stroke-width="1.2" stroke-linecap="round"/>
<path d="M3.82967 10.4797C4.18911 9.52212 4.36883 9.04331 4.71956 8.74263C5.28572 8.25727 6.09971 8.33862 6.79725 8.33862H14.377C16.441 8.33862 17.473 8.33862 17.988 9.00273C18.872 10.1428 17.8291 11.992 17.409 13.1112C16.6559 15.1177 16.2793 16.1209 15.5293 16.7328C14.3865 17.6651 12.7242 17.4864 11.3449 17.4864H8.28103C5.3285 17.4864 3.85224 17.4864 3.08452 16.5724C1.66729 14.8849 3.19226 12.1779 3.82967 10.4797Z" stroke="#03111E" stroke-width="1.2" stroke-linecap="round"/>
</svg>
