<svg width="20" height="20" viewBox="0 0 20 20" fill="none" xmlns="http://www.w3.org/2000/svg">
<path d="M9.64208 17.5003H8.75594C5.41406 17.5003 3.74312 17.5003 2.70494 16.2121C1.66675 14.9239 1.66675 12.8506 1.66675 8.70403V6.01612C1.66675 4.4183 1.66675 3.61939 1.93636 3.01992C2.12855 2.5926 2.41272 2.24 2.75711 2.00153C3.24024 1.66699 3.8841 1.66699 5.17184 1.66699C5.99684 1.66699 6.40934 1.66699 6.77044 1.83501C7.59489 2.21862 7.93486 3.14791 8.30688 4.07113L8.75594 5.18551M5.83686 5.18551H12.9573C14.4508 5.18551 15.1975 5.18551 15.734 5.63024C15.9662 5.82277 16.1656 6.07017 16.3207 6.35831C16.5624 6.80703 16.6411 7.37435 16.6667 8.26421" stroke="#03111E" stroke-width="1.2" stroke-linecap="round"/>
<path d="M3.82967 10.4802C4.18911 9.52261 4.36883 9.0438 4.71956 8.74312C5.28572 8.25776 6.09971 8.33911 6.79725 8.33911H14.377C16.441 8.33911 17.473 8.33911 17.988 9.00322C18.872 10.1432 17.8291 11.9925 17.409 13.1117C16.6559 15.1182 16.2793 16.1214 15.5293 16.7333C14.3865 17.6656 12.7242 17.4869 11.3449 17.4869H8.28103C5.3285 17.4869 3.85224 17.4869 3.08452 16.5728C1.66729 14.8854 3.19226 12.1784 3.82967 10.4802Z" stroke="#03111E" stroke-width="1.2" stroke-linecap="round"/>
</svg>
