<svg width="16" height="16" viewBox="0 0 16 16" fill="none" xmlns="http://www.w3.org/2000/svg">
<path d="M7.71364 14.0007H7.00473C4.33122 14.0007 2.99447 14.0007 2.16392 12.9701C1.33337 11.9396 1.33337 10.2809 1.33337 6.96361V4.81329C1.33337 3.53503 1.33337 2.8959 1.54906 2.41633C1.70282 2.07447 1.93015 1.79239 2.20566 1.60161C2.59217 1.33398 3.10726 1.33398 4.13744 1.33398C4.79745 1.33398 5.12745 1.33398 5.41633 1.4684C6.07589 1.77529 6.34786 2.51872 6.64548 3.2573L7.00473 4.1488M4.66946 4.1488H10.3658C11.5606 4.1488 12.158 4.1488 12.5871 4.50459C12.7729 4.65861 12.9324 4.85653 13.0566 5.08704C13.2499 5.44601 13.3129 5.89987 13.3334 6.61176" stroke="#03111E" stroke-linecap="round"/>
<path d="M3.06373 8.38497C3.35129 7.61887 3.49506 7.23582 3.77565 6.99528C4.22858 6.60699 4.87977 6.67207 5.4378 6.67207H11.5016C13.1528 6.67207 13.9784 6.67207 14.3904 7.20336C15.0976 8.11538 14.2633 9.59476 13.9272 10.4901C13.3247 12.0953 13.0235 12.8979 12.4234 13.3874C11.5092 14.1333 10.1793 13.9903 9.07596 13.9903H6.62483C4.2628 13.9903 3.08179 13.9903 2.46762 13.2591C1.33383 11.9091 2.55381 9.74352 3.06373 8.38497Z" stroke="#03111E" stroke-linecap="round"/>
</svg>
