<svg width="16" height="16" viewBox="0 0 16 16" fill="none" xmlns="http://www.w3.org/2000/svg">
<path d="M4.66666 11.9993V10.3327M4.66666 10.3327V9.33268C4.66666 9.01841 4.66666 8.86128 4.76917 8.76365C4.87168 8.66602 5.03667 8.66602 5.36666 8.66602H5.83332C6.31657 8.66602 6.70832 9.03911 6.70832 9.49935C6.70832 9.95959 6.31657 10.3327 5.83332 10.3327H4.66666ZM14 8.66602H13.125C12.575 8.66602 12.3 8.66602 12.1292 8.82873C11.9583 8.99145 11.9583 9.25334 11.9583 9.77713V10.3327M11.9583 11.9993V10.3327M11.9583 10.3327H13.4167M10.5 10.3327C10.5 11.2532 9.71649 11.9993 8.74999 11.9993C8.53191 11.9993 8.42287 11.9993 8.34166 11.9547C8.1472 11.8478 8.16666 11.6313 8.16666 11.4438V9.22157C8.16666 9.03404 8.1472 8.8176 8.34166 8.71067C8.42287 8.66602 8.53191 8.66602 8.74999 8.66602C9.71649 8.66602 10.5 9.41221 10.5 10.3327Z" stroke="white" stroke-linecap="round" stroke-linejoin="round"/>
<path d="M10 14.666H7.15153C4.97739 14.666 3.89032 14.666 3.13539 14.1341C2.91909 13.9817 2.72706 13.801 2.56514 13.5974C2.00001 12.8869 2.00001 11.8638 2.00001 9.81753V8.12056C2.00001 6.14511 2.00001 5.15739 2.31264 4.36852C2.81522 3.1003 3.8781 2.09994 5.22558 1.62692C6.06376 1.33268 7.11322 1.33268 9.21213 1.33268C10.4115 1.33268 11.0112 1.33268 11.4902 1.50082C12.2601 1.77111 12.8675 2.34275 13.1547 3.06744C13.3333 3.51823 13.3333 4.08264 13.3333 5.21147V6.66602" stroke="white" stroke-linecap="round" stroke-linejoin="round"/>
<path d="M1.99999 8C1.99999 6.7727 2.99491 5.77778 4.22221 5.77778C4.66607 5.77778 5.18935 5.85555 5.6209 5.73992C6.00434 5.63718 6.30383 5.33768 6.40657 4.95424C6.52221 4.52269 6.44443 3.99941 6.44443 3.55556C6.44443 2.32826 7.43936 1.33333 8.66666 1.33333" stroke="white" stroke-linecap="round" stroke-linejoin="round"/>
</svg>
