<svg width="16" height="16" viewBox="0 0 16 16" fill="none" xmlns="http://www.w3.org/2000/svg">
<path d="M2.33337 6.66732C2.33337 4.15316 2.33337 2.89608 3.16324 2.11503C3.9931 1.33398 5.32875 1.33398 8.00004 1.33398H8.51519C10.6893 1.33398 11.7764 1.33398 12.5313 1.86587C12.7476 2.01827 12.9397 2.199 13.1016 2.40258C13.6667 3.1131 13.6667 4.13622 13.6667 6.18247V7.87944C13.6667 9.85489 13.6667 10.8426 13.3541 11.6315C12.8515 12.8997 11.7886 13.9001 10.4411 14.3731C9.60296 14.6673 8.5535 14.6673 6.45459 14.6673C5.25521 14.6673 4.65552 14.6673 4.17656 14.4992C3.40657 14.2289 2.79921 13.6573 2.51202 12.9326C2.33337 12.4818 2.33337 11.9174 2.33337 10.7885V6.66732Z" stroke="#03111E" stroke-linejoin="round"/>
<path d="M13.6667 8C13.6667 9.2273 12.6717 10.2222 11.4444 10.2222C11.0006 10.2222 10.4773 10.1444 10.0458 10.2601C9.66232 10.3628 9.36282 10.6623 9.26008 11.0458C9.14445 11.4773 9.22222 12.0006 9.22222 12.4444C9.22222 13.6717 8.2273 14.6667 7 14.6667" stroke="#03111E" stroke-linecap="round" stroke-linejoin="round"/>
<path d="M5.33337 4.66797H10" stroke="#03111E" stroke-linecap="round" stroke-linejoin="round"/>
<path d="M5.33337 7.33398H7.33337" stroke="#03111E" stroke-linecap="round" stroke-linejoin="round"/>
</svg>
