<svg width="16" height="16" viewBox="0 0 16 16" fill="none" xmlns="http://www.w3.org/2000/svg">
<path d="M3.45342 10.1982C2.61504 10.6897 0.416849 11.6931 1.75569 12.9486C2.40971 13.562 3.13811 14.0007 4.05389 14.0007H9.27953C10.1953 14.0007 10.9237 13.562 11.5777 12.9486C12.9166 11.6931 10.7184 10.6896 9.88 10.1982C7.914 9.0459 5.41941 9.0459 3.45342 10.1982Z" stroke="#03111E" stroke-linecap="round" stroke-linejoin="round"/>
<path d="M9.33333 4.66667C9.33333 6.13943 8.13943 7.33333 6.66667 7.33333C5.19391 7.33333 4 6.13943 4 4.66667C4 3.19391 5.19391 2 6.66667 2C8.13943 2 9.33333 3.19391 9.33333 4.66667Z" stroke="#03111E"/>
<path d="M13 2.66602V5.99935M14.6667 4.33268L11.3334 4.33268" stroke="#03111E" stroke-linecap="round" stroke-linejoin="round"/>
</svg>
