<svg width="16" height="16" viewBox="0 0 16 16" fill="none" xmlns="http://www.w3.org/2000/svg">
<g clip-path="url(#clip0_683_22944)">
<path d="M12.3359 9.66634L14.0985 7.92801C15.0773 6.94674 14.7577 5.95203 13.3993 5.72351L11.2752 5.3673C10.9156 5.30681 10.4895 4.99092 10.3297 4.66159L9.15772 2.29579C8.52514 1.01208 7.48638 1.01208 6.84714 2.29579L6.33334 3.33301" stroke="#03111E" stroke-linecap="round" stroke-linejoin="round"/>
<path d="M4.86375 5.33301C4.8178 5.34814 4.77233 5.35973 4.72802 5.36731L2.60006 5.72353C1.23924 5.95204 0.925719 6.94675 1.89964 7.92802L3.55397 9.59483C3.83414 9.87711 3.98757 10.4215 3.90085 10.8113L3.42723 12.8747C3.05367 14.5012 3.92086 15.1397 5.34839 14.2861L7.34293 13.0965C7.70982 12.8814 8.30351 12.8814 8.66373 13.0965L10.6583 14.2861C12.0925 15.1397 12.953 14.5079 12.5794 12.8747L12.5316 12.6663" stroke="#03111E" stroke-linecap="round" stroke-linejoin="round"/>
<path d="M1.33334 1.33301L14.6667 14.6663" stroke="#03111E" stroke-linecap="round"/>
</g>
<defs>
<clipPath id="clip0_683_22944">
<rect width="16" height="16" fill="white"/>
</clipPath>
</defs>
</svg>
