<svg width="16" height="16" viewBox="0 0 16 16" fill="none" xmlns="http://www.w3.org/2000/svg">
<g clip-path="url(#clip0_683_22342)">
<path d="M9.15177 2.29628L10.325 4.66208C10.485 4.99141 10.9116 5.3073 11.2715 5.36779L13.398 5.724C14.7578 5.95251 15.0778 6.94722 14.0979 7.92849L12.4447 9.5953C12.1648 9.87759 12.0115 10.422 12.0981 10.8118L12.5714 12.8752C12.9447 14.5084 12.0848 15.1401 10.6516 14.2866L8.65849 13.097C8.29853 12.8819 7.70526 12.8819 7.33864 13.097L5.34552 14.2866C3.91901 15.1401 3.05244 14.5016 3.42573 12.8752L3.89902 10.8118C3.98567 10.422 3.83236 9.87759 3.55239 9.5953L1.89924 7.92849C0.92601 6.94722 1.23931 5.95251 2.59916 5.724L4.72559 5.36779C5.07888 5.3073 5.5055 4.99141 5.66549 4.66208L6.83869 2.29628C7.47862 1.01257 8.5185 1.01257 9.15177 2.29628Z" stroke="#03111E" stroke-linecap="round" stroke-linejoin="round"/>
</g>
<defs>
<clipPath id="clip0_683_22342">
<rect width="16" height="16" fill="white"/>
</clipPath>
</defs>
</svg>
