<svg width="20" height="20" viewBox="0 0 20 20" fill="none" xmlns="http://www.w3.org/2000/svg">
<g clip-path="url(#clip0_4035_7352)">
<circle cx="1.25" cy="1.25" r="1.25" transform="matrix(1 0 0 -1 13.3335 6.6665)" stroke="#03111E" stroke-width="1.5" stroke-linecap="round" stroke-linejoin="round"/>
<path d="M2.31194 9.28645C1.47599 10.2201 1.458 11.6287 2.22522 12.6196C3.74768 14.5859 5.41403 16.2522 7.38035 17.7747C8.37125 18.5419 9.77984 18.5239 10.7135 17.688C13.2483 15.4183 15.5697 13.0464 17.81 10.4398C18.0315 10.1821 18.17 9.86624 18.2011 9.52786C18.3386 8.03149 18.6211 3.7204 17.4503 2.54962C16.2795 1.37885 11.9684 1.66131 10.4721 1.79881C10.1337 1.8299 9.81782 1.96845 9.56012 2.18993C6.95352 4.43022 4.58159 6.75159 2.31194 9.28645Z" stroke="#03111E" stroke-width="1.5"/>
<path d="M5.8335 11.6665L8.3335 14.1665" stroke="#03111E" stroke-width="1.5" stroke-linecap="round" stroke-linejoin="round"/>
</g>
<defs>
<clipPath id="clip0_4035_7352">
<rect width="20" height="20" fill="white"/>
</clipPath>
</defs>
</svg>
