<svg width="16" height="16" viewBox="0 0 16 16" fill="none" xmlns="http://www.w3.org/2000/svg">
<path d="M3.45339 10.1973C2.61501 10.6887 0.416819 11.6921 1.75566 12.9477C2.40968 13.561 3.13808 13.9997 4.05386 13.9997H9.2795C10.1953 13.9997 10.9237 13.561 11.5777 12.9477C12.9165 11.6921 10.7183 10.6887 9.87997 10.1973C7.91397 9.04492 5.41938 9.04492 3.45339 10.1973Z" stroke="#9EA6A9" stroke-linecap="round" stroke-linejoin="round"/>
<path d="M9.33333 4.66667C9.33333 6.13943 8.13943 7.33333 6.66667 7.33333C5.19391 7.33333 4 6.13943 4 4.66667C4 3.19391 5.19391 2 6.66667 2C8.13943 2 9.33333 3.19391 9.33333 4.66667Z" stroke="#9EA6A9"/>
<path d="M13 2.66699V6.00033M14.6667 4.33366L11.3333 4.33366" stroke="#9EA6A9" stroke-linecap="round" stroke-linejoin="round"/>
</svg>
